<?xml version="1.0" encoding="utf-8"?>
<!DOCTYPE svg PUBLIC "-//W3C//DTD SVG 1.1//EN" "http://www.w3.org/Graphics/SVG/1.1/DTD/svg11.dtd">
<svg version="1.1" xmlns="http://www.w3.org/2000/svg" xmlns:xlink="http://www.w3.org/1999/xlink" viewBox="0 0 139 27" xml:space="preserve">
<g id="animeta_logo" fill="#4bb000">
	<path id="letter-07a" d="M135.2,9.6c-0.5-0.1-0.9,0.2-1,0.7l-0.5,2.8c-0.3-0.5-0.6-1-1-1.4c-1.2-1.3-3-2.1-5-2.1c-4.6,0-8.7,3.8-9.6,8.5c-0.1,0.5-0.1,1.1-0.1,1.6c0,2,0.7,3.8,1.9,5.1c1.2,1.3,3,2.1,5,2.1c2.7,0,5.2-1.3,6.9-3.3l-0.4,2.3c-0.1,0.5,0.2,0.9,0.7,1c0.1,0,0.1,0,0.1,0c0.4,0,0.8-0.3,0.9-0.7l2.8-15.6C136,10.1,135.7,9.7,135.2,9.6z M132.9,18.1c-0.7,3.9-4.3,7.1-7.9,7.1c-3.1,0-5.2-2.3-5.3-5.5c0-0.4,0-0.9,0.1-1.3c0.7-3.9,4.3-7.1,7.9-7.1h0c3.2,0,5.2,2.3,5.3,5.5C133,17.2,132.9,17.7,132.9,18.1z"/>
	<path id="letter-06t" d="M116.9,9.5h-4.5l1.1-6.5c0.1-0.5-0.2-0.9-0.7-1c-0.5-0.1-0.9,0.2-1,0.7l-1.1,6.8h-2.6c-0.5,0-0.9,0.4-0.9,0.9c0,0.5,0.4,0.9,0.9,0.9h2.3l-2.3,12.4c0,0.2,0,0.4,0,0.5c0,0.7,0.3,1.4,0.8,1.9c0.5,0.5,1.2,0.8,1.9,0.8c0.5,0,0.9-0.4,0.9-0.9c0-0.5-0.4-0.9-0.9-0.9c-0.6,0-0.9-0.4-1-0.9c0-0.1,0-0.2,0-0.2l2.3-12.7h4.8c0.5,0,0.9-0.4,0.9-0.9C117.7,9.9,117.3,9.5,116.9,9.5z"/>
	<path id="letter-05e" d="M96.1,9.5c-4.7,0-9,3.8-9.8,8.5c-0.1,0.6-0.1,1.1-0.1,1.6c0,2,0.7,3.8,2,5.2c1.3,1.3,3.1,2.1,5.1,2.1c0,0,0,0,0,0c3,0,5.8-1.6,7.6-3.9c0.3-0.4,0.2-0.9-0.1-1.1c-0.4-0.3-0.9-0.2-1.2,0.1c-1.5,1.9-3.9,3.2-6.3,3.2c-3.2,0-5.4-2.3-5.4-5.5c0-0.4,0-0.7,0.1-1.1h14.4c0.4,0,0.7-0.3,0.8-0.7c0-0.1,0-0.1,0-0.2c0-0.3,0.1-0.6,0.1-0.9c0-2-0.7-3.8-2-5.2C99.9,10.3,98.1,9.5,96.1,9.5z M101.5,16.8H88.3c1.2-3.2,4.4-5.7,7.7-5.6C99.3,11.3,101.5,13.6,101.5,16.8C101.5,16.8,101.5,16.8,101.5,16.8z"/>
	<path id="letter-04m" d="M74.9,9.6c-2.7,0-5.3,1.5-6.8,3.7c-0.3-0.7-0.7-1.4-1.3-2c-1.1-1.1-2.6-1.7-4.4-1.7c-2.1,0-4.1,0.9-5.6,2.4l0.2-1.4c0.1-0.5-0.2-0.9-0.7-1c-0.5-0.1-0.9,0.2-1,0.7l-1.1,6.2c0,0,0,0,0,0L52.6,26c-0.1,0.5,0.2,0.9,0.7,1h0c0,0,0.1,0,0.1,0c0,0,0,0,0.1,0c0,0,0.1,0,0.1,0c0,0,0,0,0,0c0,0,0.1,0,0.1,0c0,0,0,0,0,0c0,0,0.1,0,0.1,0c0,0,0,0,0,0c0,0,0.1-0.1,0.1-0.1c0,0,0,0,0,0c0,0,0.1-0.1,0.1-0.1c0,0,0,0,0,0c0,0,0-0.1,0.1-0.1v0c0,0,0-0.1,0-0.1l1.7-9.5c0.5-3,3.5-5.6,6.5-5.5c2.7,0,4.4,1.8,4.4,4.3c0,0.3,0,0.6-0.1,0.9c0,0,0,0.1,0,0.1L65,26c-0.1,0.5,0.2,0.9,0.7,1c0,0,0.1,0,0.1,0c0,0,0.1,0,0.1,0h0c0,0,0.1,0,0.1,0c0.3-0.1,0.6-0.3,0.6-0.7l1.7-9.5c0,0,0-0.1,0-0.1c0.5-3,3.5-5.4,6.5-5.4c2.6,0,4.3,1.8,4.4,4.3c0,0.3,0,0.6-0.1,1L77.5,26c-0.1,0.5,0.2,0.9,0.7,1c0.1,0,0.1,0,0.1,0c0.4,0,0.8-0.3,0.9-0.7l1.7-9.5c0.1-0.4,0.1-0.9,0.1-1.2c0-1.7-0.6-3.2-1.7-4.3C78.1,10.2,76.6,9.6,74.9,9.6z"/>
	<path id="letter-03i" d="M48.5,11.1L45.9,25c-0.2,1.1-1.2,2-2.3,2c-1.1,0-1.8-0.9-1.6-2l2.6-13.9c0.2-1.1,1.2-2,2.3-2C48,9.2,48.7,10,48.5,11.1z M48,2.1c-1.1,0-2.1,0.9-2.3,2l-0.1,0.7c-0.2,1.1,0.5,2,1.6,2c1.1,0,2.1-0.9,2.3-2L49.6,4C49.8,3,49.1,2.1,48,2.1z"/>
	<path id="letter-02n" d="M32.2,9.2c-1.4,0-2.8,0.4-4,1.1c-0.2-0.7-0.7-1.1-1.5-1.1c-1,0-2,0.9-2.2,1.9l-1,5.5L22,25c-0.2,1.1,0.5,1.9,1.6,1.9c1,0,2.1-0.9,2.2-1.9l1.5-8.4c0.3-2,2.2-3.7,4.3-3.7c2,0,3.4,1.6,3,3.7L33,25c-0.2,1.1,0.5,1.9,1.6,1.9c1,0,2-0.9,2.2-1.9l1.5-8.4C39,12.5,36.3,9.2,32.2,9.2z"/>
	<path id="letter-01a" d="M17.7,9.2c-0.9,0-1.8,0.6-2.1,1.5c-1.2-0.9-2.7-1.5-4.4-1.5c-2.3,0-4.7,1-6.5,2.6c-1.8,1.6-3.1,3.8-3.5,6.3c-0.5,2.4,0.1,4.6,1.3,6.2c1.2,1.6,3.2,2.6,5.5,2.6c1.7,0,3.5-0.6,5-1.5c0,0.9,0.6,1.5,1.6,1.5c1,0,2-0.9,2.2-1.9l2.4-13.9C19.4,10,18.8,9.2,17.7,9.2z M14.2,18c-0.2,1.4-1,2.7-2.1,3.6c-1,0.9-2.2,1.5-3.5,1.5c-1.3,0-2.3-0.5-3-1.5c-0.7-0.9-1-2.2-0.8-3.6c0.2-1.5,1-2.7,2.1-3.7c1-0.9,2.2-1.5,3.5-1.5s2.3,0.6,3,1.5C14.2,15.3,14.5,16.6,14.2,18z"/>
</g>
</svg>
